<svg viewBox="0 0 124 40" fill="none" xmlns="http://www.w3.org/2000/svg">
<path d="M9.21973 33.7406C11.3065 35.5236 14.02 36.0396 15.7704 35.9889H76.9875V32.4204H81.8562C81.9257 32.5075 82.0019 32.6072 82.086 32.7171C83.151 34.1093 85.4774 37.1507 91.3997 37.1507C96.7245 37.1507 98.7523 35.0581 99.6534 34.1282C99.6885 34.0919 99.7826 34.0021 99.8145 33.9695V35.9889L112.484 36.0165L101.629 39.9999H19.8623C16.0679 38.3306 11.8885 36.5461 9.21973 33.7406Z" fill="#24054C"/>
<path d="M100.949 0.221313H17.0758L25.2086 9.29462V15.0761H0.920898L6.25976 20.415V26.473C6.25976 34.3292 12.6221 36.1088 15.8033 36.0166H77.0205V32.4481H81.8891C82.8388 33.6376 85.0426 37.1784 91.4327 37.1784C96.9652 37.1784 98.9384 34.9193 99.7867 34.0526V36.0166H112.484V26.888L123.079 15.0761H94.6138L92.7328 9.29462L100.949 0.221313Z" fill="url(#paint0_linear_20641_1300)"/>
<path fill-rule="evenodd" clip-rule="evenodd" d="M21.7314 2.21301L27.5793 8.54646V16.8935H5.69434L10.7138 22.7886H8.29835V26.5185C8.29835 28.7883 9.02942 30.8036 10.7138 32.2411C13.2279 34.3868 16.7829 34.0226 19.8696 34.0226C44.0221 34.0226 55.5581 34.0249 75.2489 34.0249V30.4106C77.7305 30.4106 80.68 30.4106 83.1617 30.4106C85.4577 36.9723 97.1589 37.0553 99.8422 30.4106C100.349 30.4106 101.142 30.4106 101.69 30.4106C101.696 31.9993 101.702 33.4797 101.708 34.0273H110.172V24.3526H111.39L118.439 16.8983C110.569 16.8983 103.161 16.8983 95.3055 16.8983C93.0828 16.8983 92.7748 17.0254 92.0783 14.9101L90.0713 8.81423L96.1601 2.21301L70.2301 2.21301L68.6498 7.03103L67.0589 2.21301C46.3795 2.21301 40.3331 2.21301 21.7314 2.21301Z" fill="url(#paint1_linear_20641_1300)"/>
<path d="M23.4901 19.1061V26.4973C23.4901 28.3186 22.9193 29.7253 21.7776 30.7148C20.636 31.6974 19.0075 32.1922 16.8848 32.1922C14.7622 32.1922 13.1433 31.7044 11.992 30.7219C10.8408 29.7394 10.2676 28.3281 10.2676 26.4973V25.0012H14.7934V26.3442C14.7934 27.732 15.4914 28.427 16.8824 28.4341C18.2711 28.4341 18.9619 27.739 18.9619 26.3442V22.5955H13.5678L10.2676 19.1061H23.4901ZM45.4669 18.927C47.8462 18.927 49.7817 19.4595 51.2903 20.5221C52.7989 21.5847 53.6096 22.9819 53.7103 24.7231H49.0118C48.7983 24.0281 48.3714 23.4979 47.7334 23.128C47.0931 22.7487 46.3088 22.5602 45.3806 22.5602C44.2725 22.5602 43.4115 22.8312 42.7879 23.3801C42.1739 23.9197 41.8669 24.6501 41.8669 25.5714C41.8669 26.4926 42.1835 27.2749 42.8215 27.7979C43.4618 28.321 44.3133 28.5825 45.3782 28.5825C46.3423 28.5825 47.1434 28.3846 47.7742 27.9958C48.4146 27.6 48.8223 27.0769 49.0094 26.4196H53.7079C53.5808 28.1678 52.7701 29.5745 51.2783 30.6277C49.7865 31.6832 47.851 32.2134 45.4645 32.2134C42.9318 32.2134 40.9291 31.6102 39.4541 30.4015C37.979 29.1857 37.2451 27.5812 37.2451 25.5714C37.2451 21.0594 41.4616 18.927 45.4669 18.927ZM68.3383 19.1084L63.8533 25.5714L68.3383 32.0343H63.045L59.975 27.3126H58.7566V32.0343H54.2308V19.1084H58.7566V23.8396H59.975L63.045 19.1084H68.3383ZM68.7509 19.1084H78.0424C79.6541 19.1084 80.8821 19.5231 81.7432 20.3619C82.6042 21.1913 83.0311 22.3269 83.0311 23.7689C83.0311 25.2109 82.597 26.3371 81.736 27.1759C80.8749 28.0053 79.6469 28.4199 78.0448 28.4199H73.2791V32.0343H68.7533L68.7509 19.1084ZM73.2767 25.3381H76.9415C77.8961 25.3381 78.3734 24.815 78.3734 23.9503C78.3734 23.0408 77.8193 22.5625 76.9415 22.5625H73.2767V25.3381ZM113.865 19.1108L110.541 22.6262H108.203V32.0366H103.677V22.6262H99.3116V19.1108H113.865Z" fill="url(#paint2_linear_20641_1300)"/>
<path d="M22.6267 32.0319H27.5027L30.3832 22.6756H30.7334L32.6593 28.8959H28.4682L28.3893 29.1521L29.0234 32.0319H33.6235H38.4995L34.0672 19.1061H27.059L22.6267 32.0319Z" fill="url(#paint3_linear_20641_1300)"/>
<path fill-rule="evenodd" clip-rule="evenodd" d="M16.8824 28.4341C15.4914 28.427 14.7934 27.732 14.7934 26.3442V25.0012H10.2676V26.4973C10.2676 28.3281 10.8408 29.7394 11.992 30.7219C13.1433 31.7044 14.7622 32.1922 16.8848 32.1922C19.0075 32.1922 20.636 31.6974 21.7776 30.7148C22.9193 29.7253 23.4901 28.3186 23.4901 26.4973V19.1061H10.2676L13.5678 22.5955H18.9619V26.3442C18.9619 27.739 18.2711 28.4341 16.8824 28.4341ZM13.7583 22.1532H19.4042V26.3442C19.4042 27.1087 19.2148 27.7635 18.7565 28.2242C18.265 28.7183 17.5572 28.8764 16.8813 28.8764C16.2049 28.8734 15.4967 28.7125 15.0036 28.2198C14.5433 27.7599 14.3511 27.1071 14.3511 26.3442V25.4435H10.7099V26.4973C10.7099 28.2293 11.2476 29.505 12.2792 30.3854C13.3236 31.2767 14.8259 31.7498 16.8848 31.7498C18.9432 31.7498 20.4541 31.27 21.4886 30.38C22.5129 29.4917 23.0478 28.2189 23.0478 26.4973V19.5484H11.2948L13.7583 22.1532ZM42.8215 27.7979C42.1835 27.2749 41.8669 26.4926 41.8669 25.5714C41.8669 24.6501 42.1739 23.9197 42.7879 23.3801C43.4115 22.8312 44.2725 22.5602 45.3806 22.5602C46.3088 22.5602 47.0931 22.7487 47.7334 23.128C48.3714 23.4979 48.7983 24.0281 49.0118 24.7231H53.7103C53.7016 24.5731 53.6877 24.4257 53.6685 24.2808C53.4647 22.7437 52.6689 21.4932 51.2903 20.5221C49.7817 19.4595 47.8462 18.927 45.4669 18.927C41.4616 18.927 37.2451 21.0594 37.2451 25.5714C37.2451 27.5812 37.979 29.1857 39.4541 30.4015C40.9291 31.6102 42.9318 32.2134 45.4645 32.2134C47.851 32.2134 49.7865 31.6832 51.2783 30.6277C52.6422 29.6648 53.4367 28.4066 53.6601 26.8619C53.6811 26.717 53.697 26.5695 53.7079 26.4196H49.0094C48.8223 27.0769 48.4146 27.6 47.7742 27.9958C47.1434 28.3846 46.3423 28.5825 45.3782 28.5825C44.3133 28.5825 43.4618 28.321 42.8215 27.7979ZM49.3246 26.8619C48.6908 28.4249 46.947 29.0249 45.3782 29.0249C44.3648 29.0249 43.3424 28.7879 42.5413 28.1403C41.7739 27.509 41.4245 26.5471 41.4245 25.5714C41.4245 24.541 41.7735 23.6828 42.4956 23.0481C43.224 22.4068 44.2021 22.1178 45.3806 22.1178C46.3673 22.1178 47.2335 22.3183 47.957 22.7463C48.5903 23.114 49.05 23.6275 49.3221 24.2808H53.2219C53.0234 22.9005 52.3023 21.776 51.0356 20.8838C49.6201 19.8868 47.7807 19.3694 45.4669 19.3694C43.5346 19.3694 41.5737 19.8851 40.109 20.9186C38.6585 21.9422 37.6875 23.4746 37.6875 25.5714C37.6875 27.4564 38.3679 28.9326 39.7346 30.0595C41.1078 31.1847 43.0002 31.771 45.4645 31.771C47.7867 31.771 49.6252 31.2554 51.0228 30.2666C52.1788 29.4434 52.9913 28.2777 53.2128 26.8619H49.3246ZM58.7566 23.8396V19.1084H54.2308V32.0343H58.7566V27.3126H59.975L63.045 32.0343H68.3383L63.8533 25.5714L68.3383 19.1085L68.3383 19.1084H63.045L59.975 23.8396H58.7566ZM63.2853 19.5508L60.2153 24.2819H58.3143V19.5508H54.6731V31.5919H58.3143V26.8702H60.215L63.285 31.5919H67.4929L63.3148 25.5714L67.4929 19.5508H63.2853ZM68.7509 19.2899L68.7533 32.0343H73.2791V28.4199H78.0448C79.6469 28.4199 80.8749 28.0053 81.736 27.1759C82.597 26.3371 83.0311 25.2109 83.0311 23.7689C83.0311 22.3269 82.6042 21.1913 81.7432 20.3619C80.8821 19.5231 79.6541 19.1084 78.0424 19.1084H68.7509L68.7509 19.2898L68.7509 19.2899ZM69.1933 19.5508L69.1955 31.5919H72.8368V27.9776H78.0448C79.5714 27.9776 80.6741 27.5839 81.428 26.8583C82.1878 26.1178 82.5888 25.1143 82.5888 23.7689C82.5888 22.6382 82.2645 21.4841 81.4345 20.6788C80.6813 19.945 79.5797 19.5508 78.0424 19.5508H69.1933ZM28.3893 29.1521L29.0234 32.0319H38.4995L34.0672 19.1061H27.059L22.6267 32.0319H27.5027L28.3893 29.1521ZM27.176 31.5896L30.0566 22.2333H31.0595L33.2594 29.3382H28.8832L29.379 31.5896H37.8802L33.7513 19.5484H27.3749L23.246 31.5896H27.176ZM32.6593 28.8959L30.7334 22.6756H30.3832L28.4682 28.8959H32.6593ZM72.8343 25.7804V22.1202H76.9415C77.4576 22.1202 77.9367 22.2614 78.2895 22.593C78.6467 22.9287 78.8157 23.4039 78.8157 23.9503C78.8157 24.4617 78.6734 24.9357 78.3283 25.2811C77.9829 25.6269 77.4975 25.7804 76.9415 25.7804H72.8343ZM103.677 22.6262V32.0366H108.203V22.6262H110.541L113.865 19.1108H99.3116V22.6262H103.677ZM99.754 22.1838H104.119V31.5943H107.76V22.1838H110.351L112.838 19.5531H99.754V22.1838ZM76.9415 25.3381C77.8961 25.3381 78.3734 24.815 78.3734 23.9503C78.3734 23.0408 77.8193 22.5625 76.9415 22.5625H73.2767V25.3381H76.9415Z" fill="white"/>
<path d="M40.0355 4.19593H44.5878V17.3862H39.3163L34.8766 10.8648H34.6537V17.3862H30.1014V8.0133L26.5391 4.19593H35.4568L39.8125 11.0408H40.0355V4.19593ZM59.4555 15.7228C57.9716 16.955 55.9483 17.571 53.3857 17.571C50.823 17.571 48.8237 16.955 47.3422 15.7228C45.8584 14.4819 45.1224 12.8428 45.1224 10.7922C45.1224 8.74157 45.8608 7.12221 47.3351 5.87909C48.8094 4.63817 50.823 4.01111 53.3881 4.01111C55.9531 4.01111 57.9908 4.63597 59.4651 5.87909C62.4777 8.41484 62.3848 13.2692 59.4555 15.7228ZM57.0199 10.7922C57.0199 9.80867 56.6939 9.054 56.0346 8.51054C55.3826 7.96709 54.5004 7.70087 53.3857 7.70087C52.271 7.70087 51.3624 7.97589 50.72 8.53695C50.0847 9.098 49.7682 9.84387 49.7682 10.79C49.7682 11.7361 50.0943 12.5105 50.7535 13.054C51.4128 13.5974 52.2877 13.8637 53.3857 13.8637C54.4836 13.8637 55.4257 13.5886 56.061 13.0364C56.2452 12.878 57.0199 11.8949 57.0199 10.7922ZM71.6766 4.19593L68.831 13.285H68.4786L65.614 4.19593H60.539L65.228 17.3862H72.0266L76.7515 4.19593H71.6766Z" fill="url(#paint4_linear_20641_1300)"/>
<path d="M90.2527 17.3862L87.2753 8.57435L91.3554 4.19593H78.7484L74.2871 17.3862H79.1919L82.0925 7.83948H82.4449L84.3795 14.1871H80.1639L80.0421 14.5878L80.6431 17.3862H90.2527Z" fill="url(#paint5_linear_20641_1300)"/>
<path fill-rule="evenodd" clip-rule="evenodd" d="M39.3163 17.3862H44.5878V4.19593H40.0355V11.0408H39.8125L35.4568 4.19593H26.5391L30.1014 8.0133V17.3862H34.6537V10.8648H34.8766L39.3163 17.3862ZM34.2113 16.9439V10.4224H35.1106L39.5503 16.9439H44.1455V4.63828H40.4778V11.4831H39.5697L35.2139 4.63828H27.5569L30.5437 7.83896V16.9439H34.2113ZM59.4651 5.87909C57.9908 4.63597 55.9531 4.01111 53.3881 4.01111C50.823 4.01111 48.8094 4.63817 47.3351 5.87909C45.8608 7.12221 45.1224 8.74157 45.1224 10.7922C45.1224 12.8428 45.8584 14.4819 47.3422 15.7228C48.8237 16.955 50.823 17.571 53.3857 17.571C55.9483 17.571 57.9716 16.955 59.4555 15.7228C62.3848 13.2692 62.4777 8.41484 59.4651 5.87909ZM59.1719 15.3833C61.9228 13.0786 61.9103 8.52789 59.1799 6.21727C57.8087 5.06104 55.8839 4.45346 53.3881 4.45346C50.894 4.45346 48.9924 5.0624 47.6202 6.21727C46.2509 7.37185 45.5648 8.86483 45.5648 10.7922C45.5648 12.721 46.2495 14.2321 47.6255 15.383C49.0052 16.5304 50.8934 17.1287 53.3857 17.1287C55.8787 17.1287 57.7903 16.53 59.1719 15.3833ZM65.614 4.19593H60.539L65.228 17.3862H72.0266L76.7515 4.19593H71.6766L68.831 13.285H68.4786L65.614 4.19593ZM72.0016 4.63828L69.1561 13.7274H68.1543L65.2896 4.63828H61.1657L65.5402 16.9439H71.7151L76.1232 4.63828H72.0016ZM50.72 8.53695C51.3624 7.97589 52.271 7.70087 53.3857 7.70087C54.5004 7.70087 55.3826 7.96709 56.0346 8.51054C56.6939 9.054 57.0199 9.80867 57.0199 10.7922C57.0199 11.8949 56.2452 12.878 56.061 13.0364C55.4257 13.5886 54.4836 13.8637 53.3857 13.8637C52.2877 13.8637 51.4128 13.5974 50.7535 13.054C50.0943 12.5105 49.7682 11.7361 49.7682 10.79C49.7682 9.84387 50.0847 9.098 50.72 8.53695ZM56.3506 13.3708C55.6078 14.0161 54.5477 14.306 53.3857 14.306C52.2165 14.306 51.2319 14.0216 50.4721 13.3953C49.6948 12.7545 49.3259 11.8457 49.3259 10.79C49.3259 9.80272 49.6795 8.86567 50.4281 8.20457C51.2385 7.4971 52.3346 7.25851 53.3857 7.25851C54.5686 7.25851 55.5622 7.54149 56.3167 8.16983C57.0934 8.81048 57.4622 9.69919 57.4622 10.7922C57.4622 11.4426 57.2356 12.0376 56.9992 12.4777C56.7681 12.908 56.4984 13.2431 56.3506 13.3708ZM86.7718 8.46589L90.3386 4.63828H79.0657L74.9037 16.9439H78.864L81.7646 7.39713H82.7725L84.9767 14.6294H80.5035L81.0005 16.9439H89.6363L86.7718 8.46589ZM90.2527 17.3862H80.6431L80.0421 14.5878L79.1919 17.3862H74.2871L78.7484 4.19593H91.3554L87.2753 8.57435L90.2527 17.3862ZM80.1639 14.1871L82.0925 7.83948H82.4449L84.3795 14.1871H80.1639Z" fill="white"/>
<path d="M98.4985 25.8895C98.8399 23.3566 97.1541 21.0061 95.0444 19.7665L95.0454 19.767C92.5019 18.2474 90.0736 18.4268 88.1624 19.6106C88.1632 19.6091 88.1643 19.6084 88.1657 19.6072C88.1326 19.6287 88.0999 19.6497 88.0679 19.6705C87.9848 19.7236 87.9025 19.7786 87.8212 19.8354C87.3059 20.1879 86.996 20.4574 86.829 20.6743C86.6395 20.8643 86.4595 21.0644 86.2895 21.2736C86.2906 21.2716 86.2915 21.2701 86.2915 21.2701C86.2915 21.2701 85.0436 22.5449 84.6563 23.9834C84.186 26.0857 84.5077 28.2078 84.9934 28.9693C85.8823 30.2276 85.9358 31.5372 89.8767 32.8598C90.8623 33.1906 91.8392 33.1486 92.7507 32.8997C92.8191 32.8814 92.8869 32.8606 92.9547 32.8399C97.0338 32.0183 98.0337 29.3376 98.4985 25.8895Z" fill="#F2FDFE"/>
<path d="M98.4985 25.8895C98.8399 23.3566 97.1541 21.0061 95.0444 19.7665L95.0454 19.767C92.5019 18.2474 90.0736 18.4268 88.1624 19.6106C88.1632 19.6091 88.1643 19.6084 88.1657 19.6072C88.1326 19.6287 88.0999 19.6497 88.0679 19.6705C87.9848 19.7236 87.9025 19.7786 87.8212 19.8354C87.3059 20.1879 86.996 20.4574 86.829 20.6743C86.6395 20.8643 86.4595 21.0644 86.2895 21.2736C86.2906 21.2716 86.2915 21.2701 86.2915 21.2701C86.2915 21.2701 85.0436 22.5449 84.6563 23.9834C84.186 26.0857 84.5077 28.2078 84.9934 28.9693C85.8823 30.2276 85.9358 31.5372 89.8767 32.8598C90.8623 33.1906 91.8392 33.1486 92.7507 32.8997C92.8191 32.8814 92.8869 32.8606 92.9547 32.8399C97.0338 32.0183 98.0337 29.3376 98.4985 25.8895Z" fill="url(#paint6_linear_20641_1300)"/>
<path d="M94.1395 29.5558C93.4476 28.9615 91.0278 28.5909 90.7426 27.6352C90.7473 27.4084 90.7691 27.1702 90.7692 26.934C90.7271 26.7514 90.7292 26.4772 90.6522 26.2271C90.5873 26.07 90.4895 25.9217 90.3423 25.7874C90.3378 25.7849 90.3336 25.7818 90.3294 25.7787C90.2116 25.537 90.3203 25.0057 90.4316 24.4053C90.4958 23.9407 90.5572 23.4452 90.5326 23.0066C90.5391 22.8686 90.5236 22.7526 90.4898 22.6546C90.1711 21.7341 88.2397 22.4253 88.2256 21.5642C88.4531 20.7741 86.5366 21.434 88.1645 19.6069C88.0404 19.687 87.9262 19.7627 87.8205 19.8354C87.3052 20.1879 86.9953 20.4574 86.8283 20.6743C86.6388 20.8643 86.4588 21.0644 86.2888 21.2736C86.275 21.2929 86.1967 21.4054 86.0817 21.5852C85.9053 21.9298 85.6022 22.3788 86.0367 22.3769C88.8671 22.1388 85.5518 25.1672 86.8286 26.2683C89.1631 27.9082 87.2291 27.715 88.169 29.5909C88.235 29.7229 88.3028 29.8691 88.3759 30.0224C89.1273 30.4376 89.2276 30.9466 89.5446 31.4097C89.4624 31.2538 90.4375 30.8614 90.6571 29.9663C93.0403 29.987 92.7385 31.4907 94.8681 29.5487C95.0407 29.5492 95.2089 29.5366 95.3733 29.5144C95.2697 29.5198 95.1597 29.5262 95.0428 29.5318C94.7609 29.5607 94.4606 29.5696 94.1395 29.5558Z" fill="url(#paint7_radial_20641_1300)"/>
<path d="M95.5761 31.4506C94.7355 31.9752 93.7786 32.3269 92.8434 32.3025C92.4243 32.2915 91.8995 32.2932 91.3879 32.2433C91.1858 32.2237 90.9857 32.196 90.7946 32.1562C90.4665 32.0879 90.1662 31.985 89.93 31.8267C89.7661 31.7167 89.633 31.58 89.5433 31.4105C89.2262 30.9466 89.1261 30.4384 88.3746 30.0232C88.2525 29.9561 88.1141 29.8907 87.9547 29.8294C86.0079 28.4013 86.2925 27.0102 85.2847 26.2054C83.9356 25.2123 85.4897 22.509 86.0807 21.5855C86.1955 21.4063 86.274 21.2933 86.2878 21.274C86.289 21.272 86.2898 21.2705 86.2898 21.2705C86.2898 21.2705 84.9917 22.4344 84.5447 24.3154C84.1575 26.6944 84.506 28.2081 84.9917 28.9696C85.8806 30.2279 85.9342 31.5375 89.8751 32.8601C90.8607 33.191 91.8376 33.1489 92.749 32.9001C92.8175 32.8817 92.8853 32.861 92.9531 32.8402C94.9871 32.4305 96.7145 31.1232 97.6251 29.546C97.1533 30.2169 96.4235 30.9213 95.5751 31.4501L95.5761 31.4506Z" fill="#CEE7F9"/>
<path d="M97.5965 25.4667C97.1371 26.8035 96.3961 26.7236 95.6287 28.327C95.4703 28.7878 95.1616 29.2143 94.814 29.5445C94.8997 29.5401 94.9645 29.5349 95.0431 29.5311C95.1604 29.5249 95.2706 29.5194 95.3736 29.5136C96.3996 29.3728 97.3813 28.8353 97.9247 28.014C98.2681 27.3724 98.4223 26.6174 98.4979 25.888C98.7777 23.8122 97.7564 22.1028 96.5707 20.9419C96.5614 20.9325 96.5519 20.9237 96.5431 20.9147C96.5215 20.8935 96.4998 20.8723 96.4773 20.8514C96.3038 20.6867 96.1281 20.534 95.9518 20.3936C95.9454 20.3886 95.939 20.3836 95.9326 20.3786C95.9095 20.3599 95.8861 20.3417 95.8627 20.3235C95.4091 19.9705 94.9636 19.7 94.5877 19.5222C94.5897 19.5234 94.5912 19.5242 94.5931 19.5254C95.1757 19.9306 98.8747 22.1577 97.5965 25.4667Z" fill="#CEE7F9"/>
<path d="M87.5312 23.2058C87.3022 23.6957 86.6387 24.9612 86.6932 25.4517C86.5622 26.1611 88.4255 27.9814 89.4238 27.1367C89.5216 26.9224 88.5285 26.3823 90.3165 27.0147C90.3869 27.0401 90.4873 27.0182 90.5328 26.9567C90.6816 26.7139 90.5713 26.4892 90.3388 26.3417C89.2604 25.4842 90.6685 24.29 90.5191 23.1439C90.5256 23.0958 90.5299 23.0504 90.5323 23.0072C90.5252 22.8847 90.5114 22.7669 90.4895 22.6552C90.1708 21.7346 88.2394 22.4259 88.2254 21.5648C88.4528 20.7747 86.5363 21.4346 88.1642 19.6075C88.0402 19.6876 87.9309 19.7708 87.8202 19.836C87.4353 20.0628 87.1499 20.2693 86.828 20.6749C86.0955 21.6258 88.0954 21.5816 87.5309 23.2063L87.5312 23.2058Z" fill="url(#paint8_radial_20641_1300)"/>
<path d="M97.8437 29.1455C98.3606 27.9623 98.4764 26.1371 98.4983 25.8896C98.1453 26.5238 98.234 27.3199 97.7963 27.9818C97.0791 29.0659 96.027 29.4265 94.814 29.5445C92.6841 31.487 93.0408 29.9884 90.6579 29.9672C90.209 30.6434 89.4837 30.2819 89.4188 30.8538C89.4178 31.0708 89.4632 31.2547 89.5449 31.4103C89.6342 31.5803 89.7668 31.7167 89.9315 31.8264C90.1673 31.9845 90.4677 32.0881 90.7962 32.156C90.9867 32.1955 91.1868 32.2232 91.3894 32.243C91.901 32.2929 92.4256 32.2917 92.8449 32.3023C93.7801 32.3266 94.7365 31.9747 95.5776 31.4504C96.4252 30.9219 97.1555 30.2178 97.6276 29.5463C97.7043 29.4376 97.7765 29.301 97.8445 29.1453L97.8437 29.1455Z" fill="#3674CC"/>
<path d="M89.9771 29.9177C90.1404 29.2562 88.6082 28.9923 88.7356 29.7631C88.8561 30.2452 89.7672 30.4472 89.9771 29.9177Z" fill="#3674CC"/>
<path d="M92.7329 29.8756C93.2474 30.4302 93.8914 30.1898 93.2585 29.6266C92.8673 29.3711 92.5515 29.5085 92.7329 29.8756Z" fill="#3674CC"/>
<path d="M88.5283 21.3406C88.4311 21.136 88.1118 21.1691 87.9242 21.0929C87.4547 20.8218 87.9513 20.2146 88.206 20.0095C88.6688 19.5901 90.2881 18.9143 90.9773 18.8685C92.5088 18.6967 93.4171 19.0542 95.0455 19.7669C92.5012 18.2474 90.073 18.4269 88.1617 19.6107C86.5389 21.4334 88.243 20.8285 88.2256 21.5643C88.2394 22.4259 90.1708 21.7346 90.4898 22.6547C90.2497 21.4378 88.9581 22.2516 88.5283 21.3406Z" fill="url(#paint9_radial_20641_1300)"/>
<path d="M91.7214 25.2929C92.1803 25.3456 92.1222 24.7346 92.3022 24.462C92.8426 23.967 92.9349 23.4641 92.4596 23.0979C91.4933 22.3509 90.4767 24.943 91.7222 25.2927L91.7214 25.2929Z" fill="url(#paint10_radial_20641_1300)"/>
<path d="M89.9209 20.5897C89.6827 20.5061 89.1586 20.7045 89.1962 20.9377C89.2291 20.998 89.2783 21.0464 89.3374 21.0845C89.3439 21.0882 89.3504 21.092 89.3569 21.0957C89.3594 21.0972 89.3614 21.0983 89.3639 21.0997C89.9618 21.4365 90.702 20.8939 89.9209 20.5897Z" fill="url(#paint11_radial_20641_1300)"/>
<path d="M91.6219 21.0677C90.7948 20.8926 90.863 22.0951 91.3856 22.3969C91.9301 22.2322 92.546 21.2632 91.6219 21.0677Z" fill="url(#paint12_radial_20641_1300)"/>
<defs>
<linearGradient id="paint0_linear_20641_1300" x1="61.9997" y1="1.33888e-05" x2="61.9997" y2="35.5463" gradientUnits="userSpaceOnUse">
<stop stop-color="#370E91"/>
<stop offset="0.078125" stop-color="#22006B"/>
<stop offset="0.927083" stop-color="#22006B"/>
<stop offset="1" stop-color="#370E91"/>
</linearGradient>
<linearGradient id="paint1_linear_20641_1300" x1="62.0665" y1="1.98339" x2="62.0665" y2="34.2462" gradientUnits="userSpaceOnUse">
<stop stop-color="#7541CB"/>
<stop offset="0.140625" stop-color="#5511AC"/>
<stop offset="0.880954" stop-color="#5511AC"/>
<stop offset="1" stop-color="#7541CB"/>
</linearGradient>
<linearGradient id="paint2_linear_20641_1300" x1="62.0688" y1="32.211" x2="62.0688" y2="18.927" gradientUnits="userSpaceOnUse">
<stop stop-color="#57C9FF"/>
<stop offset="1" stop-color="white"/>
</linearGradient>
<linearGradient id="paint3_linear_20641_1300" x1="62.0688" y1="32.211" x2="62.0688" y2="18.927" gradientUnits="userSpaceOnUse">
<stop stop-color="#57C9FF"/>
<stop offset="1" stop-color="white"/>
</linearGradient>
<linearGradient id="paint4_linear_20641_1300" x1="58.9473" y1="17.571" x2="58.9473" y2="4.01111" gradientUnits="userSpaceOnUse">
<stop stop-color="#57C9FF"/>
<stop offset="1" stop-color="white"/>
</linearGradient>
<linearGradient id="paint5_linear_20641_1300" x1="58.9473" y1="17.571" x2="58.9473" y2="4.01111" gradientUnits="userSpaceOnUse">
<stop stop-color="#57C9FF"/>
<stop offset="1" stop-color="white"/>
</linearGradient>
<linearGradient id="paint6_linear_20641_1300" x1="87.9756" y1="32.0986" x2="95.0833" y2="19.7877" gradientUnits="userSpaceOnUse">
<stop stop-color="#57C9FF"/>
<stop offset="1" stop-color="white"/>
</linearGradient>
<radialGradient id="paint7_radial_20641_1300" cx="0" cy="0" r="1" gradientUnits="userSpaceOnUse" gradientTransform="translate(-74.9999 -135.731) rotate(30) scale(655.569 656.097)">
<stop stop-color="#71F5FF"/>
<stop offset="0.13" stop-color="#69E8FF"/>
<stop offset="0.36" stop-color="#56C8FF"/>
<stop offset="0.38" stop-color="#54C5FF"/>
<stop offset="0.92" stop-color="#1483FF"/>
</radialGradient>
<radialGradient id="paint8_radial_20641_1300" cx="0" cy="0" r="1" gradientUnits="userSpaceOnUse" gradientTransform="translate(87.9282 19.3588) rotate(30) scale(12.3205 12.3304)">
<stop stop-color="#71F5FF"/>
<stop offset="0.13" stop-color="#69E8FF"/>
<stop offset="0.36" stop-color="#56C8FF"/>
<stop offset="0.38" stop-color="#54C5FF"/>
<stop offset="0.92" stop-color="#1483FF"/>
</radialGradient>
<radialGradient id="paint9_radial_20641_1300" cx="0" cy="0" r="1" gradientUnits="userSpaceOnUse" gradientTransform="translate(94.9057 18.3902) rotate(30) scale(12.0079 12.0176)">
<stop stop-color="#71F5FF"/>
<stop offset="0.13" stop-color="#69E8FF"/>
<stop offset="0.36" stop-color="#56C8FF"/>
<stop offset="0.38" stop-color="#54C5FF"/>
<stop offset="0.92" stop-color="#1483FF"/>
</radialGradient>
<radialGradient id="paint10_radial_20641_1300" cx="0" cy="0" r="1" gradientUnits="userSpaceOnUse" gradientTransform="translate(87.8385 27.3449) rotate(30) scale(11.4886 11.4979)">
<stop stop-color="#71F5FF"/>
<stop offset="0.13" stop-color="#69E8FF"/>
<stop offset="0.36" stop-color="#56C8FF"/>
<stop offset="0.38" stop-color="#54C5FF"/>
<stop offset="0.92" stop-color="#1483FF"/>
</radialGradient>
<radialGradient id="paint11_radial_20641_1300" cx="0" cy="0" r="1" gradientUnits="userSpaceOnUse" gradientTransform="translate(87.8382 27.3449) rotate(30) scale(11.4886 11.4979)">
<stop stop-color="#71F5FF"/>
<stop offset="0.13" stop-color="#69E8FF"/>
<stop offset="0.36" stop-color="#56C8FF"/>
<stop offset="0.38" stop-color="#54C5FF"/>
<stop offset="0.92" stop-color="#1483FF"/>
</radialGradient>
<radialGradient id="paint12_radial_20641_1300" cx="0" cy="0" r="1" gradientUnits="userSpaceOnUse" gradientTransform="translate(87.7309 27.3742) rotate(30) scale(11.7546 11.7641)">
<stop stop-color="#71F5FF"/>
<stop offset="0.13" stop-color="#69E8FF"/>
<stop offset="0.36" stop-color="#56C8FF"/>
<stop offset="0.38" stop-color="#54C5FF"/>
<stop offset="0.92" stop-color="#1483FF"/>
</radialGradient>
</defs>
</svg>
